<?xml version="1.0" encoding="UTF-8"?>
<svg id="Layer_1" data-name="Layer 1" xmlns="http://www.w3.org/2000/svg" viewBox="0 0 128 128">
  <defs>
    <style>
      .cls-1 {
        fill: #0080ff;
      }
    </style>
  </defs>
  <path class="cls-1" d="M60.25,128H27.03v-21.99h31.93c8.51,0,15.62-1.54,21.31-4.64,5.69-3.09,9.95-7.76,12.77-14,2.82-6.24,4.23-14.06,4.23-23.45s-1.42-17.18-4.27-23.37c-2.85-6.18-7.09-10.82-12.73-13.92-5.64-3.09-12.69-4.64-21.14-4.64H26.42V0h34.35c12.89,0,23.99,2.58,33.31,7.73s16.5,12.5,21.53,22.04c5.03,9.53,7.55,20.92,7.55,34.15s-2.53,24.71-7.59,34.27c-5.06,9.57-12.28,16.92-21.66,22.08-9.38,5.15-20.59,7.73-33.65,7.73Z"/>
  <circle class="cls-1" cx="49.93" cy="64.72" r="20.65"/>
</svg>
